<svg xmlns="http://www.w3.org/2000/svg" viewBox="0 0 1200 360" fill="none">
  <path d="M-40 138C4 108 38 196 92 162C140 132 148 72 188 96C216 112 204 178 248 184C302 191 322 106 370 100C445 90 467 177 541 182C621 188 653 97 730 92C814 86 834 164 916 169C991 173 1039 154 1110 155H1242" stroke="#283B45" stroke-width="3.5" stroke-linecap="round"/>
  <path d="M184 93c-12-22-44 4-32 24 14 24 61-12 31-38-26-22-72 28-38 60 29 27 79-20 49-56-25-31-90 5-82 46 8 43 84 55 106 12 18-35-14-79-56-84-47-5-89 43-75 86 17 52 100 67 133 23 31-40-8-109-65-111-63-3-114 56-97 113 19 65 109 90 160 42 52-49 17-139-53-157-73-18-150 49-137 127 12 73 109 123 177 78 66-44 59-145-7-186-62-39-154-15-184 50-32 70 8 159 86 186 82 28 170-28 180-111" stroke="#283B45" stroke-width="3" stroke-linecap="round" stroke-linejoin="round"/>
  <circle cx="1112" cy="155" r="10" fill="#283B45"/>
  <circle cx="1112" cy="155" r="34" fill="#283B45" opacity=".08"/>
</svg>
