<svg xmlns="http://www.w3.org/2000/svg" viewBox="0 0 240 240" role="img" aria-labelledby="title desc">
  <title id="title">Sepideh Mansouri brand portrait</title>
  <desc id="desc">A stylized illustrated portrait used in the website header brandmark.</desc>
  <defs>
    <linearGradient id="bg" x1="0%" y1="0%" x2="100%" y2="100%">
      <stop offset="0%" stop-color="#f4ddd1"/>
      <stop offset="55%" stop-color="#d7745e"/>
      <stop offset="100%" stop-color="#355f6b"/>
    </linearGradient>
    <linearGradient id="coat" x1="0%" y1="0%" x2="100%" y2="100%">
      <stop offset="0%" stop-color="#173743"/>
      <stop offset="100%" stop-color="#355f6b"/>
    </linearGradient>
  </defs>
  <rect width="240" height="240" rx="120" fill="url(#bg)"/>
  <circle cx="126" cy="92" r="46" fill="#f4c7b3"/>
  <path d="M80 89c5-31 26-52 55-52 29 0 49 17 57 47-10-9-25-16-40-16-8 0-16 3-23 8-10 7-18 17-31 19-6 1-12 0-18-6Z" fill="#18303a"/>
  <path d="M71 220c6-40 27-67 58-67 33 0 54 27 60 67H71Z" fill="url(#coat)"/>
  <path d="M106 127c8 10 21 10 30 0 1 14-6 23-15 23s-16-9-15-23Z" fill="#e6a88d"/>
  <path d="M98 177c8 9 17 14 28 14 10 0 21-5 31-14l11 43H88l10-43Z" fill="#f7efe7"/>
  <circle cx="108" cy="96" r="4" fill="#173743"/>
  <circle cx="145" cy="96" r="4" fill="#173743"/>
  <path d="M113 115c7 6 16 6 23 0" fill="none" stroke="#a45040" stroke-linecap="round" stroke-width="4"/>
</svg>
